# xmcd
#
# Track frame offsets:
#	150
#	15232
#	27916
#	45441
#	69845
#	90480
#	104079
#	122940
#	143925
#	149985
#	171057
#	182810
#	202568
#	224965
#	231230
#	250539
#	271806
#	283527
#	307706
#	330913
#
# Disc length: 4497 seconds
#
# Revision: 1
# Processed by: cddbd v1.5.2PL0 Copyright (c) Steve Scherf et al.
# Submitted via: audiograbber 1.83.01
#
DISCID=18118f14
DTITLE=Jojo Moyes - Weit weg und ganz nah CD3
DYEAR=2014
DGENRE=Hörbuch
TTITLE0=046
TTITLE1=047
TTITLE2=048
TTITLE3=049
TTITLE4=050
TTITLE5=051
TTITLE6=052
TTITLE7=053
TTITLE8=054
TTITLE9=055
TTITLE10=056
TTITLE11=057
TTITLE12=058
TTITLE13=059
TTITLE14=060
TTITLE15=061
TTITLE16=062
TTITLE17=063
TTITLE18=064
TTITLE19=065
EXTD=
EXTT0=
EXTT1=
EXTT2=
EXTT3=
EXTT4=
EXTT5=
EXTT6=
EXTT7=
EXTT8=
EXTT9=
EXTT10=
EXTT11=
EXTT12=
EXTT13=
EXTT14=
EXTT15=
EXTT16=
EXTT17=
EXTT18=
EXTT19=
PLAYORDER=
